<svg xmlns="http://www.w3.org/2000/svg" viewBox="0 -23.625 233.75 233.75" fill="none"><g><path d="M 55.5 16.5 L 71.5 16 C 71.5 16 70.125 54.375 70 92.5 C 69.875 130.625 71 168.5 71 168.5 L 55.5 168.5 Z" fill="#1B2B4B"/><path d="M 99 0.08 C 99 0.08 129.102 -1.92 157.5 14.045 C 185.898 30.01 196.592 63.988 196 87.63 C 195.852 93.54 195.972 105.262 192.5 118.5 C 189.028 131.738 181.963 146.494 170.5 157 C 147.574 178.012 104 183.5 104 183.5 C 104 183.5 117.438 184.006 144.5 166.5 C 158.031 157.747 169.039 145.168 175 131.5 C 180.961 117.832 181.875 103.075 182.5 91.544 C 183.125 80.013 181.289 64.74 176 51 C 170.711 37.26 161.969 25.055 149.5 16.5 C 124.563 -0.609 99 0.08 99 0.08 Z" fill="#1B2B4B"/><path d="M 0 1.265 C 0 1.265 22.232 1.49 48.715 1.351 C 61.956 1.282 95.791 -0.652 120.098 5.342 C 144.406 11.337 159.186 25.261 164.955 33.107 C 176.491 48.799 179.673 70.843 180.389 75.571 C 181.821 85.028 183.494 110.656 172.189 134.925 C 166.537 147.059 146.733 167.628 122.028 176.907 C 97.322 186.185 68.198 183.69 63.184 183.707 C 53.158 183.74 43.273 183.868 34.245 183.707 C 16.189 183.386 0.482 183.669 0.482 183.669 L 0 178.399 L 0.482 173.535 L 14.952 171.643 L 27.975 166.555 C 27.975 166.555 30.969 24.315 27.975 19.602 C 24.981 14.889 20.981 15.621 13.987 13.811 C 6.994 12.002 0 12.364 0 12.364 L 0 6.573 Z M 54.02 16.281 L 54.02 169.732 C 54.02 169.732 96.585 172.576 120.098 155.898 C 143.612 139.22 148.073 108.005 148.073 88.824 C 148.073 69.643 137.824 36.006 114.311 23.912 C 90.797 11.818 54.02 16.281 54.02 16.281 Z" fill="#1B2B4B"/><path d="M 215.875 150.5 C 225.747 150.5 233.75 158.559 233.75 168.5 C 233.75 178.441 225.747 186.5 215.875 186.5 C 206.003 186.5 198 178.441 198 168.5 C 198 158.559 206.003 150.5 215.875 150.5 Z" fill="#1B2B4B"/><path d="M 212.375 150.5 C 222.247 150.5 230.25 158.559 230.25 168.5 C 230.25 178.441 222.247 186.5 212.375 186.5 C 202.503 186.5 194.5 178.441 194.5 168.5 C 194.5 158.559 202.503 150.5 212.375 150.5 Z" fill="#1B2B4B"/></g></svg>
